<?xml version="1.0" encoding="UTF-8"?><svg xmlns="http://www.w3.org/2000/svg" height="890.85" viewBox="0 0 175.37 890.85" width="175.37"><defs><linearGradient gradientUnits="userSpaceOnUse" id="a" x1="208.92" x2="-24.98" y1="877.81" y2="13.01"><stop offset="0" stop-color="#daa85c"/><stop offset=".03" stop-color="#c89b58"/><stop offset=".08" stop-color="#ae8752"/><stop offset=".13" stop-color="#9b794d"/><stop offset=".19" stop-color="#90714b"/><stop offset=".25" stop-color="#8c6e4a"/><stop offset=".3" stop-color="#93734c"/><stop offset=".37" stop-color="#a58150"/><stop offset=".45" stop-color="#c49757"/><stop offset=".51" stop-color="#daa85c"/><stop offset=".56" stop-color="#dcbb8a"/><stop offset=".62" stop-color="#decbb2"/><stop offset=".67" stop-color="#dfd7ce"/><stop offset=".71" stop-color="#e0dee0"/><stop offset=".75" stop-color="#e0e1e6"/><stop offset=".78" stop-color="#dddde0"/><stop offset=".82" stop-color="#d4d0cf"/><stop offset=".87" stop-color="#c5bcb3"/><stop offset=".93" stop-color="#b09f8d"/><stop offset=".98" stop-color="#957b5c"/><stop offset="1" stop-color="#8c6e4a"/></linearGradient></defs><g data-name="Capa 2"><g data-name="Layer 1"><path d="M2.8,9.58c14.07-10.79,32-6.72,46.53.82,15.09,7.8,27.94,19.54,40.23,31.11,24.91,23.44,47,50.37,62.26,81.15a185.28,185.28,0,0,1,18.4,103.79C165.81,265,150.7,301.57,132.16,335.3,95.86,401.31,44.52,459,18.84,530.63-5.83,599.49-7.31,677.9,20.58,746.06,44.36,804.18,88.42,854,145.09,881.7q10.28,5,21,9c2,.74,2.79-2.39.87-3.14-60.89-24-110.49-73.85-137.68-133-31.72-69-31.75-150-6.8-221.13,25.77-73.47,79-132.14,115.37-200,17.58-32.78,31.69-68.13,36.17-105.27a187.79,187.79,0,0,0-16.37-101.73C143.49,95.83,122.24,68.8,98.21,45.29c-11.74-11.49-24.16-23.14-38-32.1C48.14,5.37,33-1.71,18.25.37A29.06,29.06,0,0,0,1.92,8.44c-.58.55.22,1.65.88,1.14Z" fill="url(#a)"/></g></g></svg>