<?xml version="1.0" encoding="UTF-8"?><svg xmlns="http://www.w3.org/2000/svg" height="985.5" viewBox="0 0 103.65 985.5" width="103.65"><defs><linearGradient gradientUnits="userSpaceOnUse" id="a" x1="172.54" x2="-74.5" y1="949.42" y2="36.03"><stop offset="0" stop-color="#daa85c"/><stop offset=".03" stop-color="#c89b58"/><stop offset=".08" stop-color="#ae8752"/><stop offset=".13" stop-color="#9b794d"/><stop offset=".19" stop-color="#90714b"/><stop offset=".25" stop-color="#8c6e4a"/><stop offset=".3" stop-color="#93734c"/><stop offset=".37" stop-color="#a58150"/><stop offset=".45" stop-color="#c49757"/><stop offset=".51" stop-color="#daa85c"/><stop offset=".56" stop-color="#dcbb8a"/><stop offset=".62" stop-color="#decbb2"/><stop offset=".67" stop-color="#dfd7ce"/><stop offset=".71" stop-color="#e0dee0"/><stop offset=".75" stop-color="#e0e1e6"/><stop offset=".78" stop-color="#dddde0"/><stop offset=".82" stop-color="#d4d0cf"/><stop offset=".87" stop-color="#c5bcb3"/><stop offset=".93" stop-color="#b09f8d"/><stop offset=".98" stop-color="#957b5c"/><stop offset="1" stop-color="#8c6e4a"/></linearGradient></defs><g data-name="Capa 2"><g data-name="Layer 1"><path d="M52.86.66C44.2,20.28,35.86,40,27.54,59.79,19.77,78.22,12.29,97.14,9.65,117.1c-4.79,36.3,9.11,71.08,19.41,105.17,5.14,17,9.69,34.44,10.22,52.28C39.83,293,35,309.92,26.77,326.33c-7.69,15.32-17.09,29.93-22.6,46.27a78.17,78.17,0,0,0-.11,50c21.71,65.41,116.61,105.16,89.09,184.29-11.13,32-34.91,57.67-49.34,88-15.85,33.34-18,72-1.72,105.64,14.73,30.42,42.23,59,33.3,95.36-4.11,16.79-13.45,31.65-21.17,46.92A155.24,155.24,0,0,0,44.81,965c-1.51,4.7-6.23,16.21-.61,19.87,3.38,2.2,7.88-1.39,5.82-5-1.22-2.18-4.59-.22-3.36,2-.44-.78,1.18-6.2,1.45-7.41.42-1.94.93-3.85,1.49-5.75A104.79,104.79,0,0,1,54,956.67c3.29-7.65,7.23-15,11.12-22.35,7.35-13.9,14.88-28.23,17.15-44,4.82-33.43-18.29-60.05-32.86-87.72-18-34.09-16.48-73.35.49-107.56,14.3-28.84,36.13-53.67,47.53-84,5.31-14.11,7.64-29.23,5.46-44.22-2.42-16.58-10.06-31.84-19.57-45.46C63.06,492.44,34.39,470.13,17,439.07c-8.91-16-14.26-34.14-11.22-52.49,2.82-17.06,11.57-32.29,19.58-47.35,7.73-14.51,14.86-29.34,17.28-45.76,2.36-16,.66-32.14-2.78-47.82-7.44-33.88-22.87-66-26.37-100.73C9.45,104.32,28.83,67,43.74,30.46c3.91-9.57,7.81-19.14,11.59-28.76.55-1.41-1.85-2.43-2.47-1Z" fill="url(#a)"/></g></g></svg>